HIERARCHY
ROOT Hips
{
	OFFSET -3.958830 18.904000 13.208200
	CHANNELS 6 Xposition Yposition Zposition Zrotation Yrotation Xrotation 
	JOINT LHipJoint
	{
		OFFSET 0.000000 0.000000 0.000000
		CHANNELS 3 Zrotation Yrotation Xrotation
		JOINT LeftUpLeg
		{
			OFFSET 1.800000 -1.400000 0.085000
			CHANNELS 3 Zrotation Yrotation Xrotation
			JOINT LeftLeg
			{
				OFFSET 2.215000 -6.000000 0.000000
				CHANNELS 3 Zrotation Yrotation Xrotation
				JOINT LeftFoot
				{
					OFFSET 2.500000 -6.900000 0.000000
					CHANNELS 3 Zrotation Yrotation Xrotation
					JOINT LeftToeBase
					{
						OFFSET 0.200000 -0.500000 1.950000
						CHANNELS 3 Zrotation Yrotation Xrotation
						End Site
						{
							OFFSET 0.000000 0.000000 0.000000
						}
					}
				}
			}
		}
	}
	JOINT RHipJoint
	{
		OFFSET 0.000000 0.000000 0.000000
		CHANNELS 3 Zrotation Yrotation Xrotation
		JOINT RightUpLeg
		{
			OFFSET -1.800000 -1.400000 0.085000
			CHANNELS 3 Zrotation Yrotation Xrotation
			JOINT RightLeg
			{
				OFFSET -2.215000 -6.000000 0.000000
				CHANNELS 3 Zrotation Yrotation Xrotation
				JOINT RightFoot
				{
					OFFSET -2.500000 -6.900000 0.000000
					CHANNELS 3 Zrotation Yrotation Xrotation
					JOINT RightToeBase
					{
						OFFSET -0.200000 -0.500000 1.950000
						CHANNELS 3 Zrotation Yrotation Xrotation
						End Site
						{
							OFFSET 0.000000 0.000000 0.000000
						}
					}
				}
			}
		}
	}
	JOINT LowerBack
	{
		OFFSET 0.000000 0.000000 0.000000
		CHANNELS 3 Zrotation Yrotation Xrotation
		JOINT Spine
		{
			OFFSET -0.087000 1.940000 -0.288900
			CHANNELS 3 Zrotation Yrotation Xrotation
			JOINT Spine1
			{
				OFFSET 0.000000 1.950000 0.060000
				CHANNELS 3 Zrotation Yrotation Xrotation
				JOINT Neck
				{
					OFFSET 0.000000 0.000000 0.000000
					CHANNELS 3 Zrotation Yrotation Xrotation
					JOINT Neck1
					{
						OFFSET 0.000000 1.600000 0.340000
						CHANNELS 3 Zrotation Yrotation Xrotation
						JOINT Head
						{
							OFFSET 0.000000 1.667000 -0.240000
							CHANNELS 3 Zrotation Yrotation Xrotation
							End Site
							{
								OFFSET 0.000000 0.000000 0.000000
							}
						}
					}
				}
				JOINT LeftShoulder
				{
					OFFSET 0.000000 0.000000 0.000000
					CHANNELS 3 Zrotation Yrotation Xrotation
					JOINT LeftArm
					{
						OFFSET 2.700000 1.550000 -0.730000
						CHANNELS 3 Zrotation Yrotation Xrotation
						JOINT LeftForeArm
						{
							OFFSET 5.450000 0.000000 0.000000
							CHANNELS 3 Zrotation Yrotation Xrotation
							JOINT LeftHand
							{
								OFFSET 3.450000 0.000000 0.000000
								CHANNELS 3 Zrotation Yrotation Xrotation
								JOINT LeftHandIndex1
								{
									OFFSET 0.750000 0.000000 0.000000
									CHANNELS 3 Zrotation Yrotation Xrotation
									End Site
									{
										OFFSET 0.000000 0.000000 0.000000
									}
								}
							}
						}
					}
				}
				JOINT RightShoulder
				{
					OFFSET 0.000000 0.000000 0.000000
					CHANNELS 3 Zrotation Yrotation Xrotation
					JOINT RightArm
					{
						OFFSET -2.700000 1.550000 -0.730000
						CHANNELS 3 Zrotation Yrotation Xrotation
						JOINT RightForeArm
						{
							OFFSET -5.450000 0.000000 0.000000
							CHANNELS 3 Zrotation Yrotation Xrotation
							JOINT RightHand
							{
								OFFSET -3.450000 0.000000 0.000000
								CHANNELS 3 Zrotation Yrotation Xrotation
								JOINT RightHandIndex1
								{
									OFFSET -0.750000 0.000000 0.000000
									CHANNELS 3 Zrotation Yrotation Xrotation
									End Site
									{
										OFFSET 0.000000 0.000000 0.000000
									}
								}
							}
						}
					}
				}
			}
		}
	}
}
MOTION
Frames: 10
Frame Time: 0.016667
1.777620 16.334980 -7.651630 -9.233214 37.162716 -21.103655 -15.334516 12.178298 0.988307 4.684223 -0.877563 2.125050 6.399288 4.236323 28.506961 0.046140 5.532284 2.673570 0.351870 0.189090 0.216130 18.691580 -7.776844 6.806374 -27.012990 5.965159 -58.272133 39.199140 -43.219218 64.671735 -2.958513 -15.001946 -0.357406 0.215550 0.003300 0.090530 -4.977698 -1.953182 -9.035438 36.014555 -14.473555 35.628116 -10.009568 -3.258115 7.130201 0.981018 -1.909189 -8.910913 -5.972324 -11.148709 31.764717 3.053500 -12.840060 -12.850830 -9.004986 -10.466657 -2.028996 25.881070 -6.240708 -4.591027 80.758850 -49.643400 -33.747080 -3.515383 2.487419 0.284660 -0.060430 0.034620 0.085830 6.487602 9.179261 10.546435 6.320273 -11.183456 -1.986252 -17.091155 11.113622 -0.579007 2.433292 -1.430471 -0.072390 0.165640 -0.033250 -0.092940 
1.799450 16.257400 -7.647160 -7.961288 34.521603 -20.342341 -15.293271 12.262615 1.186292 4.296801 -0.695471 3.548199 4.434627 5.062876 28.248063 0.085002 5.710909 2.611425 0.376100 0.225870 0.249840 18.690635 -7.921630 6.530200 -23.316841 7.327965 -57.878903 30.431091 -39.781642 70.641439 -2.977780 -15.392043 -0.477621 0.237950 -0.012470 0.098530 -4.835536 -2.113676 -8.959730 33.697675 -14.339134 35.810102 -9.359351 -4.237176 7.404606 1.242690 -1.837829 -8.659388 -5.873666 -9.535666 31.943048 1.951080 -10.690490 -12.970520 -10.572478 -11.375020 -1.867014 23.170454 -8.316664 -5.178258 77.201279 -51.215267 -32.788665 -3.511158 2.451720 0.283480 -0.049010 0.048460 0.081310 7.637105 9.511974 10.020725 6.440180 -10.648192 -2.758246 -21.857935 14.790980 -1.442503 2.369017 -1.510872 -0.067620 0.159510 -0.046380 -0.109940 
1.840140 16.167140 -7.638220 -6.242298 30.655297 -17.784141 -15.238508 12.266855 1.394312 3.083487 -0.365514 4.015180 2.491125 5.643296 26.869382 0.055450 5.681600 2.619571 0.426610 0.292760 0.292200 18.734712 -8.051603 6.303934 -19.828243 8.447901 -58.926529 22.049944 -34.748392 74.964015 -2.855279 -15.236883 -0.480912 0.292940 -0.022110 0.110380 -4.729708 -2.188370 -8.870762 31.435798 -13.642378 34.845955 -8.451381 -4.812979 7.236710 1.190130 -2.378768 -7.846955 -6.521784 -8.189787 31.000043 0.408470 -8.982420 -13.793410 -11.333396 -10.532852 -2.153962 19.141235 -10.906162 -5.141164 72.058152 -53.760300 -31.398508 -3.497360 2.434554 0.276300 -0.031150 0.057720 0.087910 8.565067 8.785752 8.710105 7.193899 -9.923188 -4.069506 -28.135717 21.791184 -3.468839 2.252556 -1.603367 -0.065990 0.167820 -0.064350 -0.125150 
1.835560 16.105310 -7.633190 -4.247800 28.113910 -16.012760 -15.240880 12.516444 1.669089 1.895656 -0.603110 3.040092 0.858867 6.322413 28.337410 0.078261 5.940461 2.523359 0.422950 0.293550 0.308660 18.675524 -8.345748 5.797437 -14.345447 8.874213 -57.947911 10.091496 -26.503089 79.540447 -2.526851 -14.320255 -0.294128 0.303220 -0.002470 0.115410 -4.521658 -2.574775 -8.721413 27.070042 -13.261923 34.721758 -6.724606 -6.331388 6.780402 0.826094 -2.661302 -7.196139 -7.213142 -5.856266 31.406137 -0.415590 -6.636350 -13.564390 -12.794614 -10.738972 -2.015716 15.186898 -12.651276 -5.406719 66.754018 -56.021269 -29.913760 -3.519818 2.416537 0.271390 -0.000400 0.049880 0.078470 10.951002 8.655207 7.358699 8.832399 -8.723003 -6.267434 -36.777741 29.869650 -7.356841 2.152046 -1.629362 -0.082260 0.179420 -0.056810 -0.139670 
1.841690 16.035440 -7.608970 -3.058746 24.434409 -14.829343 -15.248707 12.852834 1.966108 1.551556 -0.899494 2.276826 -1.197408 7.249132 29.532083 0.152357 6.241120 2.416259 0.407890 0.283420 0.305960 18.587049 -8.670974 5.258116 -7.611949 9.603992 -55.320310 -1.107135 -16.482768 79.963761 -2.103674 -12.663703 0.126012 0.289880 0.003760 0.115610 -4.275920 -3.045278 -8.558545 23.730689 -12.695284 34.020202 -5.050899 -7.055298 6.478948 0.757082 -3.298534 -7.113825 -8.795964 -3.373788 32.824213 -1.113020 -4.536860 -12.654550 -14.869431 -11.315697 -1.504696 9.675340 -13.776418 -5.616871 59.470007 -57.204468 -26.971738 -3.534573 2.486514 0.266290 0.013000 0.049880 0.076940 13.300963 9.532641 6.777190 8.671909 -7.553539 -7.495129 -40.527931 34.067497 -9.814519 2.119873 -1.611017 -0.083970 0.174220 -0.055450 -0.144070 
1.868090 15.981660 -7.545100 -1.534090 20.838062 -13.744509 -15.255139 13.124444 2.296235 1.037366 -0.965128 2.410315 -3.733118 8.225682 29.413584 0.224968 6.499567 2.331312 0.391830 0.260460 0.300760 18.502123 -8.998762 4.727140 -2.281982 9.131496 -51.239042 -9.704446 -7.946436 75.774065 -1.749410 -11.109461 0.554766 0.275190 0.010260 0.117150 -4.075829 -3.414598 -8.422136 20.908601 -12.198010 32.419107 -4.117198 -7.611523 5.864301 0.842595 -4.167792 -6.625167 -11.068577 -1.786555 34.864814 -2.030680 -3.761790 -11.317260 -18.294516 -10.995999 -1.308626 2.232951 -15.172117 -5.414897 49.134062 -58.262680 -22.581103 -3.560842 2.620434 0.258690 0.024040 0.041050 0.072820 16.656002 9.723615 6.037817 8.776930 -6.838223 -8.656031 -43.730844 38.545762 -12.477517 2.103890 -1.586487 -0.086210 0.167160 -0.048120 -0.145850 
1.895200 15.934690 -7.466680 -0.061856 16.354764 -12.604566 -15.246810 13.243654 2.594187 0.363757 -0.857294 2.964850 -6.607590 9.200883 28.442512 0.285122 6.715180 2.258191 0.382320 0.244140 0.319930 18.457743 -9.249237 4.350843 2.041563 8.654859 -47.186231 -16.346583 -1.599579 69.499511 -1.521291 -9.954609 0.891609 0.270470 0.004490 0.124310 -3.945471 -3.510989 -8.353751 18.466456 -11.502127 30.604719 -4.501640 -7.658063 4.954530 1.378216 -4.033293 -5.810287 -11.185865 -0.215104 36.664165 -3.220140 -1.960680 -10.253610 -22.804472 -10.669730 -1.413367 -3.461281 -16.154982 -5.346477 46.094291 -59.028631 -21.752597 -3.599666 2.646080 0.254710 0.042200 0.038030 0.057340 20.166801 9.137457 5.308894 9.534653 -5.901264 -9.156678 -42.562000 42.197018 -13.337025 2.088586 -1.570614 -0.093290 0.150760 -0.044210 -0.165670 
1.900380 15.887970 -7.397170 1.385276 11.996410 -11.673920 -15.249012 13.342655 2.875892 -0.364354 -0.744138 3.284324 -9.402216 10.009496 27.166884 0.342465 6.876242 2.207378 0.368450 0.221770 0.328590 18.408441 -9.469115 4.014281 5.281513 7.667184 -43.056814 -22.068329 2.895704 61.648405 -1.340657 -8.957221 1.202065 0.258630 0.001850 0.128750 -3.805714 -3.584080 -8.323107 15.924873 -10.661515 28.883680 -4.889612 -7.470766 3.879283 1.830201 -3.631216 -5.040411 -10.933081 0.855262 38.876529 -3.978760 -0.683720 -9.047810 -26.615468 -9.764891 -1.767287 -8.994608 -17.205314 -5.110238 37.292260 -57.379367 -16.942066 -3.647873 2.772213 0.256020 0.055370 0.036030 0.047780 23.166972 7.843117 4.745814 12.578160 -6.221693 -10.140241 -42.867118 45.967427 -14.878174 2.059586 -1.550605 -0.100520 0.137780 -0.040020 -0.180410 
1.896310 15.841910 -7.317730 2.625810 7.627401 -10.436319 -15.251117 13.431120 3.146427 -1.043187 -0.924665 2.627695 -12.497055 10.868051 26.340066 0.426300 7.060228 2.150580 0.358340 0.213530 0.331060 18.364954 -9.669158 3.656983 7.485087 6.208216 -38.632020 -26.461139 5.246833 52.339462 -1.140925 -7.825900 1.575029 0.243450 -0.002190 0.122730 -3.680615 -3.683170 -8.273019 13.987133 -10.101880 26.524166 -5.150132 -7.405217 2.747992 2.082069 -3.936615 -4.602763 -11.980474 2.449910 40.685632 -4.562120 0.652570 -8.066830 -29.047557 -7.795031 -2.062160 -15.334346 -16.929001 -4.863466 26.133237 -53.850347 -11.010532 -3.665695 2.894173 0.256020 0.056870 0.042300 0.049360 25.116826 6.148632 4.247305 16.511345 -6.879713 -11.093602 -41.890407 48.308735 -15.362415 2.040649 -1.535895 -0.099450 0.134550 -0.046180 -0.183140 
1.874170 15.817560 -7.252250 3.690796 3.379632 -9.363380 -15.236049 13.509193 3.389283 -1.448144 -1.307514 1.358195 -15.503361 11.564270 25.481177 0.505167 7.196535 2.102301 0.344840 0.203580 0.323230 18.337689 -9.873530 3.302915 8.201806 4.633129 -34.146242 -28.271517 5.528635 44.302281 -0.931938 -6.729339 1.943334 0.225040 -0.003930 0.116690 -3.605144 -3.734938 -8.205776 12.415464 -10.102460 24.608619 -5.954553 -7.809100 1.570337 2.228270 -4.706771 -4.529731 -13.731716 4.839484 42.067671 -4.570500 2.291080 -6.875900 -31.381357 -6.732334 -1.939297 -19.318927 -15.647975 -5.032032 16.837918 -46.282032 -6.061289 -3.693376 2.991560 0.248950 0.055330 0.043600 0.048440 27.145199 5.666357 4.043300 18.500989 -6.310326 -11.261099 -35.636820 48.516000 -12.909661 2.058390 -1.568483 -0.092800 0.121290 -0.048770 -0.179690 
